<svg width="256" height="256" viewBox="0 0 256 256" fill="none" xmlns="http://www.w3.org/2000/svg">
<g clip-path="url(#clip0_282_33540)">
<path d="M79.9299 211.109C100.095 222.78 123.817 226.719 146.672 222.192C169.527 217.664 189.955 204.98 204.149 186.503C218.342 168.026 225.331 145.018 223.814 121.768C222.296 98.5185 212.375 76.6143 195.9 60.1394C179.425 43.6644 157.521 33.7432 134.271 32.2255C111.021 30.7078 88.0133 37.6972 69.5364 51.8905C51.0594 66.0839 38.3748 86.5124 33.8475 109.367C29.3201 132.222 33.2591 155.944 44.9299 176.109L32.4199 213.459C31.9498 214.869 31.8816 216.382 32.2229 217.828C32.5642 219.274 33.3015 220.596 34.3522 221.647C35.4029 222.698 36.7254 223.435 38.1716 223.776C39.6177 224.118 41.1304 224.049 42.5399 223.579L79.9299 211.109Z" stroke="#0B3CFE" stroke-width="24" stroke-linecap="round" stroke-linejoin="round"/>
</g>
<defs>
<clipPath id="clip0_282_33540">
<rect width="256" height="256" fill="white"/>
</clipPath>
</defs>
</svg>
